<?xml version="1.0" standalone="no"?><!DOCTYPE svg PUBLIC "-//W3C//DTD SVG 1.1//EN" "http://www.w3.org/Graphics/SVG/1.1/DTD/svg11.dtd"><svg t="1753258020042" class="icon" viewBox="0 0 1024 1024" version="1.1" xmlns="http://www.w3.org/2000/svg" p-id="8021" width="32" height="32" xmlns:xlink="http://www.w3.org/1999/xlink"><path d="M411.607429 820.057493l398.990127-409.996751-70.519185-72.438945-328.470942 336.341958L283.815403 541.372328 213.296218 613.811274l198.311211 206.246219zM511.946887 103.155106a46.586177 46.586177 0 0 0-34.619673 14.71816 49.209849 49.209849 0 0 0-14.334208 35.579552c0 13.950256 4.735408 26.23672 14.334208 36.859393 9.534808 10.622672 21.11736 15.934008 34.619673 15.934008a44.922385 44.922385 0 0 0 34.619673-15.998 53.497313 53.497313 0 0 0 14.334208-36.795401 49.209849 49.209849 0 0 0-14.334208-35.579552 46.586177 46.586177 0 0 0-34.619673-14.71816z m347.604549 0c27.068616 0 50.553681 10.23872 70.455194 30.71616 19.901512 20.413448 29.884264 44.538433 29.884264 72.374953v714.470691c0 27.83652-9.982752 52.025497-29.884264 72.438946-19.83752 20.47744-43.386577 30.71616-70.455194 30.71616H164.342338c-27.068616 0-50.553681-10.23872-70.455194-30.71616A100.467442 100.467442 0 0 1 64.00288 920.71691V206.246219c0-27.83652 9.982752-51.961505 29.884264-72.438945 19.83752-20.47744 43.386577-30.71616 70.455194-30.71616h207.846019c10.366704-30.268216 28.092488-55.033121 53.113361-74.230722C450.514566 9.5988 479.310966 0 511.946887 0c32.635921 0 61.496313 9.5988 86.581177 28.7964 25.084864 19.261592 42.874641 44.026497 53.177353 74.358706h207.846019z" fill="#478ef7" p-id="8022"></path></svg>